<?xml version="1.0" encoding="utf-8"?>
<svg xmlns="http://www.w3.org/2000/svg" xmlns:xlink="http://www.w3.org/1999/xlink" version="1.1" style="width:0;height:0;position:absolute;overflow:hidden;">
  <defs>
<symbol viewBox="0 0 473.3330078125 872.666015625" aria-labelledby="fnsi-entypo-left-open-big-title" id="si-entypo-left-open-big"><title id="fnsi-entypo-left-open-big-title">icon left-open-big</title><path d="M456 807.333c17.333 17.333 17.333 33.333 0 48-17.333 17.333-33.333 17.333-48 0l-392-394c-16-16-16-32.667 0-50l392-394C422.667 0 438.667 0 456 17.333c17.333 14.667 17.333 30.667 0 48l-358 372 358 370"/></symbol>
<symbol viewBox="0 0 477.95294189453125 884.1480102539062" aria-labelledby="cvsi-metro-chevron-thin-left-title" id="si-metro-chevron-thin-left"><title id="cvsi-metro-chevron-thin-left-title">icon chevron-thin-left</title><path d="M464.231 820.148c13.722 13.926 13.722 36.301 0 50.125s-35.89 13.875-49.613 0L13.722 465.383C0 451.559 0 429.185 13.722 415.258l400.896-404.89a34.86 34.86 0 0 1 49.613 0c13.722 13.875 13.722 36.301 0 50.125L98.612 440.346l365.62 379.802z"/></symbol>
  </defs>
</svg>
